 <svg width="282" height="600" viewBox="0 0 313 423" fill="none" xmlns="http://www.w3.org/2000/svg">
                <path d="M14.5003 11.4997L43.4138 32.7711C171.087 126.699 162.862 319.834 27.7099 401.516L14.5003 409.5" stroke="url(#paint0_linear_4_54)" stroke-width="15" stroke-linecap="round"/>
                <g filter="url(#filter0_d_4_54)">
                <circle cx="15" cy="11" r="10" fill="#9300AB"/>
                <circle cx="15" cy="11" r="10.5" stroke="white"/>
                </g>
                <circle cx="111" cy="115" r="10" fill="#9300AB"/>
                <circle cx="111" cy="115" r="10.5" stroke="white" stroke-opacity="0.56"/>
                <circle cx="135" cy="214" r="10" fill="#9300AB"/>
                <circle cx="135" cy="214" r="10.5" stroke="white" stroke-opacity="0.56"/>
                <circle cx="111" cy="310" r="10" fill="#9300AB"/>
                <circle cx="111" cy="310" r="10.5" stroke="white" stroke-opacity="0.56"/>
                <circle cx="14" cy="409" r="10.5" fill="#165220" stroke="#B2E77E"/>
                <circle cx="14" cy="409" r="13" stroke="#FFF0F0" stroke-width="2"/>
                <path d="M138.401 309.818V320H136.542L132.112 313.592H132.038V320H129.885V309.818H131.774L136.169 316.222H136.259V309.818H138.401ZM143.59 320.149C142.818 320.149 142.15 319.985 141.587 319.657C141.027 319.326 140.594 318.865 140.289 318.275C139.984 317.682 139.832 316.994 139.832 316.212C139.832 315.423 139.984 314.733 140.289 314.143C140.594 313.55 141.027 313.089 141.587 312.761C142.15 312.43 142.818 312.264 143.59 312.264C144.363 312.264 145.029 312.43 145.589 312.761C146.152 313.089 146.587 313.55 146.892 314.143C147.196 314.733 147.349 315.423 147.349 316.212C147.349 316.994 147.196 317.682 146.892 318.275C146.587 318.865 146.152 319.326 145.589 319.657C145.029 319.985 144.363 320.149 143.59 320.149ZM143.6 318.509C143.952 318.509 144.245 318.409 144.48 318.21C144.716 318.008 144.893 317.733 145.012 317.385C145.135 317.037 145.196 316.641 145.196 316.197C145.196 315.753 145.135 315.357 145.012 315.009C144.893 314.661 144.716 314.385 144.48 314.183C144.245 313.981 143.952 313.88 143.6 313.88C143.246 313.88 142.947 313.981 142.705 314.183C142.467 314.385 142.286 314.661 142.164 315.009C142.044 315.357 141.985 315.753 141.985 316.197C141.985 316.641 142.044 317.037 142.164 317.385C142.286 317.733 142.467 318.008 142.705 318.21C142.947 318.409 143.246 318.509 143.6 318.509ZM151.54 320.124C150.96 320.124 150.435 319.975 149.964 319.677C149.497 319.375 149.125 318.933 148.85 318.349C148.579 317.763 148.443 317.044 148.443 316.192C148.443 315.317 148.584 314.589 148.865 314.009C149.147 313.426 149.521 312.99 149.989 312.702C150.459 312.41 150.975 312.264 151.535 312.264C151.963 312.264 152.319 312.337 152.604 312.483C152.892 312.625 153.124 312.804 153.3 313.02C153.479 313.232 153.615 313.441 153.708 313.646H153.772V309.818H155.885V320H153.797V318.777H153.708C153.608 318.989 153.467 319.2 153.285 319.408C153.106 319.614 152.872 319.785 152.584 319.92C152.299 320.056 151.951 320.124 151.54 320.124ZM152.211 318.439C152.552 318.439 152.841 318.346 153.076 318.161C153.315 317.972 153.497 317.708 153.623 317.37C153.752 317.032 153.817 316.636 153.817 316.182C153.817 315.728 153.754 315.333 153.628 314.999C153.502 314.664 153.32 314.405 153.081 314.223C152.843 314.041 152.552 313.95 152.211 313.95C151.863 313.95 151.57 314.044 151.331 314.233C151.093 314.422 150.912 314.684 150.789 315.018C150.667 315.353 150.605 315.741 150.605 316.182C150.605 316.626 150.667 317.019 150.789 317.36C150.915 317.698 151.096 317.963 151.331 318.156C151.57 318.344 151.863 318.439 152.211 318.439ZM161.107 320.149C160.321 320.149 159.645 319.99 159.078 319.672C158.515 319.35 158.08 318.896 157.776 318.31C157.471 317.72 157.318 317.022 157.318 316.217C157.318 315.431 157.471 314.742 157.776 314.148C158.08 313.555 158.51 313.093 159.063 312.761C159.62 312.43 160.273 312.264 161.022 312.264C161.526 312.264 161.995 312.345 162.429 312.508C162.866 312.667 163.248 312.907 163.572 313.229C163.901 313.55 164.156 313.955 164.338 314.442C164.52 314.926 164.612 315.492 164.612 316.142V316.724H158.163V315.411H162.618C162.618 315.106 162.552 314.836 162.419 314.601C162.286 314.366 162.103 314.182 161.867 314.049C161.635 313.913 161.365 313.845 161.057 313.845C160.735 313.845 160.45 313.92 160.202 314.069C159.956 314.215 159.764 314.412 159.625 314.661C159.486 314.906 159.415 315.179 159.411 315.481V316.729C159.411 317.107 159.481 317.433 159.62 317.708C159.763 317.983 159.963 318.195 160.222 318.344C160.48 318.494 160.787 318.568 161.141 318.568C161.377 318.568 161.592 318.535 161.788 318.469C161.983 318.402 162.151 318.303 162.29 318.17C162.429 318.038 162.535 317.875 162.608 317.683L164.567 317.812C164.467 318.283 164.263 318.694 163.955 319.045C163.65 319.393 163.256 319.665 162.772 319.861C162.291 320.053 161.736 320.149 161.107 320.149Z" fill="white"/>
                <path d="M149.885 222V211.818H153.902C154.671 211.818 155.327 211.956 155.871 212.231C156.418 212.503 156.834 212.889 157.119 213.389C157.407 213.886 157.551 214.471 157.551 215.144C157.551 215.82 157.405 216.402 157.114 216.889C156.822 217.373 156.399 217.744 155.846 218.003C155.296 218.261 154.629 218.391 153.847 218.391H151.158V216.661H153.499C153.91 216.661 154.252 216.604 154.523 216.491C154.795 216.379 154.997 216.21 155.13 215.984C155.266 215.759 155.334 215.479 155.334 215.144C155.334 214.806 155.266 214.521 155.13 214.289C154.997 214.057 154.794 213.881 154.518 213.762C154.247 213.639 153.904 213.578 153.489 213.578H152.038V222H149.885ZM155.384 217.366L157.914 222H155.538L153.062 217.366H155.384ZM162.39 222.149C161.604 222.149 160.928 221.99 160.361 221.672C159.798 221.35 159.364 220.896 159.059 220.31C158.754 219.72 158.601 219.022 158.601 218.217C158.601 217.431 158.754 216.742 159.059 216.148C159.364 215.555 159.793 215.093 160.346 214.761C160.903 214.43 161.556 214.264 162.305 214.264C162.809 214.264 163.278 214.345 163.712 214.508C164.15 214.667 164.531 214.907 164.856 215.229C165.184 215.55 165.439 215.955 165.621 216.442C165.804 216.926 165.895 217.492 165.895 218.142V218.724H159.447V217.411H163.901C163.901 217.106 163.835 216.836 163.702 216.601C163.57 216.366 163.386 216.182 163.15 216.049C162.918 215.913 162.648 215.845 162.34 215.845C162.019 215.845 161.733 215.92 161.485 216.069C161.24 216.215 161.047 216.412 160.908 216.661C160.769 216.906 160.698 217.179 160.694 217.481V218.729C160.694 219.107 160.764 219.433 160.903 219.708C161.046 219.983 161.246 220.195 161.505 220.344C161.763 220.494 162.07 220.568 162.425 220.568C162.66 220.568 162.875 220.535 163.071 220.469C163.266 220.402 163.434 220.303 163.573 220.17C163.712 220.038 163.818 219.875 163.891 219.683L165.85 219.812C165.751 220.283 165.547 220.694 165.238 221.045C164.934 221.393 164.539 221.665 164.055 221.861C163.575 222.053 163.019 222.149 162.39 222.149ZM169.454 222.144C168.967 222.144 168.533 222.06 168.152 221.891C167.771 221.718 167.469 221.465 167.247 221.13C167.028 220.792 166.919 220.371 166.919 219.867C166.919 219.443 166.997 219.087 167.153 218.798C167.308 218.51 167.52 218.278 167.789 218.102C168.057 217.927 168.362 217.794 168.704 217.705C169.048 217.615 169.41 217.552 169.787 217.516C170.232 217.469 170.59 217.426 170.861 217.386C171.133 217.343 171.33 217.28 171.453 217.197C171.576 217.115 171.637 216.992 171.637 216.83V216.8C171.637 216.485 171.537 216.241 171.339 216.069C171.143 215.897 170.865 215.81 170.503 215.81C170.122 215.81 169.819 215.895 169.594 216.064C169.368 216.23 169.219 216.438 169.146 216.69L167.187 216.531C167.287 216.067 167.482 215.666 167.774 215.328C168.066 214.987 168.442 214.725 168.903 214.543C169.367 214.357 169.903 214.264 170.513 214.264C170.938 214.264 171.344 214.314 171.731 214.413C172.122 214.513 172.469 214.667 172.77 214.876C173.075 215.085 173.316 215.353 173.491 215.681C173.667 216.006 173.755 216.395 173.755 216.849V222H171.746V220.941H171.687C171.564 221.18 171.4 221.39 171.194 221.572C170.989 221.751 170.742 221.892 170.454 221.995C170.165 222.094 169.832 222.144 169.454 222.144ZM170.061 220.683C170.372 220.683 170.648 220.621 170.886 220.499C171.125 220.373 171.312 220.204 171.448 219.991C171.584 219.779 171.652 219.539 171.652 219.271V218.46C171.586 218.503 171.494 218.543 171.378 218.58C171.266 218.613 171.138 218.644 170.996 218.674C170.853 218.701 170.711 218.725 170.568 218.749C170.425 218.768 170.296 218.787 170.18 218.803C169.932 218.84 169.715 218.898 169.529 218.977C169.343 219.057 169.199 219.165 169.096 219.3C168.994 219.433 168.942 219.599 168.942 219.798C168.942 220.086 169.047 220.306 169.256 220.459C169.468 220.608 169.736 220.683 170.061 220.683ZM178.848 222.149C178.066 222.149 177.393 221.983 176.83 221.652C176.27 221.317 175.839 220.853 175.537 220.26C175.239 219.667 175.09 218.984 175.09 218.212C175.09 217.429 175.24 216.743 175.542 216.153C175.847 215.56 176.28 215.098 176.84 214.766C177.4 214.432 178.066 214.264 178.838 214.264C179.504 214.264 180.088 214.385 180.588 214.627C181.089 214.869 181.485 215.209 181.776 215.646C182.068 216.084 182.229 216.598 182.259 217.188H180.26C180.204 216.806 180.055 216.5 179.813 216.268C179.574 216.032 179.261 215.915 178.873 215.915C178.545 215.915 178.258 216.004 178.013 216.183C177.771 216.359 177.582 216.616 177.446 216.954C177.31 217.292 177.242 217.701 177.242 218.182C177.242 218.669 177.309 219.083 177.441 219.425C177.577 219.766 177.768 220.026 178.013 220.205C178.258 220.384 178.545 220.474 178.873 220.474C179.115 220.474 179.332 220.424 179.524 220.325C179.72 220.225 179.881 220.081 180.007 219.892C180.136 219.7 180.22 219.469 180.26 219.201H182.259C182.226 219.784 182.066 220.298 181.781 220.742C181.5 221.183 181.11 221.528 180.613 221.776C180.116 222.025 179.528 222.149 178.848 222.149ZM187.676 214.364V215.955H183.078V214.364H187.676ZM184.122 212.534H186.24V219.653C186.24 219.849 186.27 220.001 186.329 220.111C186.389 220.217 186.472 220.291 186.578 220.335C186.687 220.378 186.813 220.399 186.956 220.399C187.055 220.399 187.154 220.391 187.254 220.374C187.353 220.354 187.43 220.339 187.483 220.33L187.816 221.906C187.71 221.939 187.56 221.977 187.368 222.02C187.176 222.066 186.942 222.094 186.667 222.104C186.157 222.124 185.709 222.056 185.325 221.901C184.944 221.745 184.647 221.503 184.435 221.175C184.223 220.847 184.118 220.432 184.122 219.932V212.534Z" fill="white"/>
                <path d="M48.7346 416H45.1252V405.818H48.7644C49.7885 405.818 50.6702 406.022 51.4093 406.43C52.1484 406.834 52.7168 407.416 53.1145 408.175C53.5156 408.934 53.7161 409.842 53.7161 410.899C53.7161 411.96 53.5156 412.871 53.1145 413.634C52.7168 414.396 52.1451 414.981 51.3993 415.388C50.6569 415.796 49.7686 416 48.7346 416ZM47.2779 414.156H48.6451C49.2814 414.156 49.8167 414.043 50.2509 413.817C50.6884 413.589 51.0165 413.236 51.2353 412.759C51.4573 412.278 51.5684 411.658 51.5684 410.899C51.5684 410.147 51.4573 409.532 51.2353 409.055C51.0165 408.577 50.69 408.226 50.2559 408.001C49.8217 407.775 49.2864 407.663 48.65 407.663H47.2779V414.156ZM58.7511 416.149C57.9656 416.149 57.2894 415.99 56.7227 415.672C56.1592 415.35 55.725 414.896 55.4201 414.31C55.1152 413.72 54.9627 413.022 54.9627 412.217C54.9627 411.431 55.1152 410.742 55.4201 410.148C55.725 409.555 56.1542 409.093 56.7077 408.761C57.2646 408.43 57.9175 408.264 58.6665 408.264C59.1703 408.264 59.6393 408.345 60.0735 408.508C60.511 408.667 60.8922 408.907 61.217 409.229C61.5451 409.55 61.8003 409.955 61.9826 410.442C62.1649 410.926 62.256 411.492 62.256 412.142V412.724H55.8079V411.411H60.2624C60.2624 411.106 60.1961 410.836 60.0636 410.601C59.931 410.366 59.747 410.182 59.5117 410.049C59.2797 409.913 59.0096 409.845 58.7013 409.845C58.3799 409.845 58.0948 409.92 57.8462 410.069C57.601 410.215 57.4087 410.412 57.2695 410.661C57.1303 410.906 57.0591 411.179 57.0558 411.481V412.729C57.0558 413.107 57.1254 413.433 57.2646 413.708C57.4071 413.983 57.6076 414.195 57.8661 414.344C58.1246 414.494 58.4312 414.568 58.7859 414.568C59.0212 414.568 59.2366 414.535 59.4322 414.469C59.6277 414.402 59.7951 414.303 59.9343 414.17C60.0735 414.038 60.1796 413.875 60.2525 413.683L62.2113 413.812C62.1119 414.283 61.908 414.694 61.5998 415.045C61.2949 415.393 60.9004 415.665 60.4165 415.861C59.936 416.053 59.3808 416.149 58.7511 416.149ZM69.9918 410.541L68.0529 410.661C68.0198 410.495 67.9485 410.346 67.8391 410.213C67.7298 410.077 67.5856 409.969 67.4066 409.89C67.2309 409.807 67.0205 409.766 66.7752 409.766C66.4471 409.766 66.1703 409.835 65.945 409.974C65.7196 410.11 65.6069 410.293 65.6069 410.521C65.6069 410.704 65.6798 410.858 65.8256 410.984C65.9715 411.11 66.2217 411.211 66.5763 411.287L67.9585 411.565C68.7009 411.718 69.2544 411.963 69.619 412.301C69.9835 412.639 70.1658 413.083 70.1658 413.634C70.1658 414.134 70.0183 414.573 69.7234 414.951C69.4317 415.329 69.0307 415.624 68.5202 415.836C68.0131 416.045 67.4281 416.149 66.7653 416.149C65.7544 416.149 64.949 415.939 64.3491 415.518C63.7525 415.094 63.4028 414.517 63.3001 413.788L65.3832 413.678C65.4461 413.987 65.5986 414.222 65.8406 414.384C66.0825 414.543 66.3924 414.623 66.7702 414.623C67.1415 414.623 67.4397 414.552 67.6651 414.409C67.8938 414.263 68.0098 414.076 68.0131 413.847C68.0098 413.655 67.9286 413.498 67.7695 413.375C67.6104 413.249 67.3652 413.153 67.0337 413.087L65.7113 412.823C64.9656 412.674 64.4104 412.415 64.0458 412.048C63.6845 411.68 63.5039 411.211 63.5039 410.641C63.5039 410.15 63.6365 409.728 63.9016 409.373C64.1701 409.018 64.5463 408.745 65.0302 408.553C65.5174 408.36 66.0875 408.264 66.7404 408.264C67.7049 408.264 68.4639 408.468 69.0174 408.876C69.5742 409.283 69.899 409.839 69.9918 410.541ZM74.9796 416.149C74.1941 416.149 73.5179 415.99 72.9512 415.672C72.3877 415.35 71.9535 414.896 71.6486 414.31C71.3437 413.72 71.1912 413.022 71.1912 412.217C71.1912 411.431 71.3437 410.742 71.6486 410.148C71.9535 409.555 72.3828 409.093 72.9363 408.761C73.4931 408.43 74.146 408.264 74.8951 408.264C75.3989 408.264 75.8678 408.345 76.302 408.508C76.7395 408.667 77.1207 408.907 77.4455 409.229C77.7736 409.55 78.0288 409.955 78.2111 410.442C78.3934 410.926 78.4846 411.492 78.4846 412.142V412.724H72.0364V411.411H76.4909C76.4909 411.106 76.4247 410.836 76.2921 410.601C76.1595 410.366 75.9756 410.182 75.7402 410.049C75.5082 409.913 75.2381 409.845 74.9299 409.845C74.6084 409.845 74.3233 409.92 74.0748 410.069C73.8295 410.215 73.6373 410.412 73.498 410.661C73.3588 410.906 73.2876 411.179 73.2843 411.481V412.729C73.2843 413.107 73.3539 413.433 73.4931 413.708C73.6356 413.983 73.8361 414.195 74.0946 414.344C74.3532 414.494 74.6597 414.568 75.0144 414.568C75.2497 414.568 75.4651 414.535 75.6607 414.469C75.8562 414.402 76.0236 414.303 76.1628 414.17C76.302 414.038 76.4081 413.875 76.481 413.683L78.4398 413.812C78.3404 414.283 78.1365 414.694 77.8283 415.045C77.5234 415.393 77.129 415.665 76.6451 415.861C76.1645 416.053 75.6093 416.149 74.9796 416.149ZM81.9846 411.585V416H79.8667V408.364H81.8851V409.711H81.9746C82.1436 409.267 82.427 408.915 82.8248 408.657C83.2225 408.395 83.7047 408.264 84.2715 408.264C84.8018 408.264 85.2641 408.38 85.6586 408.612C86.053 408.844 86.3596 409.176 86.5783 409.607C86.7971 410.034 86.9064 410.545 86.9064 411.138V416H84.7885V411.516C84.7918 411.048 84.6725 410.684 84.4306 410.422C84.1886 410.157 83.8555 410.024 83.4313 410.024C83.1462 410.024 82.8944 410.085 82.6756 410.208C82.4602 410.331 82.2911 410.51 82.1685 410.745C82.0492 410.977 81.9879 411.257 81.9846 411.585ZM95.4215 408.364L92.7518 416H90.3654L87.6957 408.364H89.9329L91.5188 413.827H91.5984L93.1793 408.364H95.4215ZM99.7095 416.149C98.9373 416.149 98.2694 415.985 97.706 415.657C97.1458 415.326 96.7133 414.865 96.4084 414.275C96.1035 413.682 95.951 412.994 95.951 412.212C95.951 411.423 96.1035 410.733 96.4084 410.143C96.7133 409.55 97.1458 409.089 97.706 408.761C98.2694 408.43 98.9373 408.264 99.7095 408.264C100.482 408.264 101.148 408.43 101.708 408.761C102.272 409.089 102.706 409.55 103.011 410.143C103.316 410.733 103.468 411.423 103.468 412.212C103.468 412.994 103.316 413.682 103.011 414.275C102.706 414.865 102.272 415.326 101.708 415.657C101.148 415.985 100.482 416.149 99.7095 416.149ZM99.7195 414.509C100.071 414.509 100.364 414.409 100.599 414.21C100.835 414.008 101.012 413.733 101.131 413.385C101.254 413.037 101.315 412.641 101.315 412.197C101.315 411.753 101.254 411.357 101.131 411.009C101.012 410.661 100.835 410.385 100.599 410.183C100.364 409.981 100.071 409.88 99.7195 409.88C99.3648 409.88 99.0665 409.981 98.8246 410.183C98.5859 410.385 98.4053 410.661 98.2827 411.009C98.1634 411.357 98.1037 411.753 98.1037 412.197C98.1037 412.641 98.1634 413.037 98.2827 413.385C98.4053 413.733 98.5859 414.008 98.8246 414.21C99.0665 414.409 99.3648 414.509 99.7195 414.509ZM106.963 405.818V416H104.845V405.818H106.963ZM115.779 408.364L113.109 416H110.723L108.053 408.364H110.29L111.876 413.827H111.956L113.537 408.364H115.779ZM120.097 416.149C119.311 416.149 118.635 415.99 118.068 415.672C117.505 415.35 117.071 414.896 116.766 414.31C116.461 413.72 116.308 413.022 116.308 412.217C116.308 411.431 116.461 410.742 116.766 410.148C117.071 409.555 117.5 409.093 118.053 408.761C118.61 408.43 119.263 408.264 120.012 408.264C120.516 408.264 120.985 408.345 121.419 408.508C121.857 408.667 122.238 408.907 122.563 409.229C122.891 409.55 123.146 409.955 123.328 410.442C123.511 410.926 123.602 411.492 123.602 412.142V412.724H117.154V411.411H121.608C121.608 411.106 121.542 410.836 121.409 410.601C121.277 410.366 121.093 410.182 120.857 410.049C120.625 409.913 120.355 409.845 120.047 409.845C119.726 409.845 119.441 409.92 119.192 410.069C118.947 410.215 118.754 410.412 118.615 410.661C118.476 410.906 118.405 411.179 118.401 411.481V412.729C118.401 413.107 118.471 413.433 118.61 413.708C118.753 413.983 118.953 414.195 119.212 414.344C119.47 414.494 119.777 414.568 120.132 414.568C120.367 414.568 120.582 414.535 120.778 414.469C120.973 414.402 121.141 414.303 121.28 414.17C121.419 414.038 121.525 413.875 121.598 413.683L123.557 413.812C123.458 414.283 123.254 414.694 122.945 415.045C122.641 415.393 122.246 415.665 121.762 415.861C121.282 416.053 120.727 416.149 120.097 416.149ZM127.798 416.124C127.218 416.124 126.692 415.975 126.222 415.677C125.754 415.375 125.383 414.933 125.108 414.349C124.836 413.763 124.7 413.044 124.7 412.192C124.7 411.317 124.841 410.589 125.123 410.009C125.405 409.426 125.779 408.99 126.247 408.702C126.717 408.41 127.233 408.264 127.793 408.264C128.22 408.264 128.577 408.337 128.862 408.483C129.15 408.625 129.382 408.804 129.558 409.02C129.737 409.232 129.873 409.441 129.965 409.646H130.03V405.818H132.143V416H130.055V414.777H129.965C129.866 414.989 129.725 415.2 129.543 415.408C129.364 415.614 129.13 415.785 128.842 415.92C128.557 416.056 128.209 416.124 127.798 416.124ZM128.469 414.439C128.81 414.439 129.099 414.346 129.334 414.161C129.573 413.972 129.755 413.708 129.881 413.37C130.01 413.032 130.075 412.636 130.075 412.182C130.075 411.728 130.012 411.333 129.886 410.999C129.76 410.664 129.578 410.405 129.339 410.223C129.1 410.041 128.81 409.95 128.469 409.95C128.121 409.95 127.828 410.044 127.589 410.233C127.35 410.422 127.17 410.684 127.047 411.018C126.924 411.353 126.863 411.741 126.863 412.182C126.863 412.626 126.924 413.019 127.047 413.36C127.173 413.698 127.354 413.963 127.589 414.156C127.828 414.344 128.121 414.439 128.469 414.439ZM137.335 416.149C136.562 416.149 135.894 415.985 135.331 415.657C134.771 415.326 134.338 414.865 134.033 414.275C133.728 413.682 133.576 412.994 133.576 412.212C133.576 411.423 133.728 410.733 134.033 410.143C134.338 409.55 134.771 409.089 135.331 408.761C135.894 408.43 136.562 408.264 137.335 408.264C138.107 408.264 138.773 408.43 139.333 408.761C139.897 409.089 140.331 409.55 140.636 410.143C140.941 410.733 141.093 411.423 141.093 412.212C141.093 412.994 140.941 413.682 140.636 414.275C140.331 414.865 139.897 415.326 139.333 415.657C138.773 415.985 138.107 416.149 137.335 416.149ZM137.344 414.509C137.696 414.509 137.989 414.409 138.224 414.21C138.46 414.008 138.637 413.733 138.756 413.385C138.879 413.037 138.94 412.641 138.94 412.197C138.94 411.753 138.879 411.357 138.756 411.009C138.637 410.661 138.46 410.385 138.224 410.183C137.989 409.981 137.696 409.88 137.344 409.88C136.99 409.88 136.692 409.981 136.45 410.183C136.211 410.385 136.03 410.661 135.908 411.009C135.788 411.357 135.729 411.753 135.729 412.197C135.729 412.641 135.788 413.037 135.908 413.385C136.03 413.733 136.211 414.008 136.45 414.21C136.692 414.409 136.99 414.509 137.344 414.509ZM142.47 416V408.364H144.523V409.696H144.603C144.742 409.222 144.976 408.864 145.304 408.622C145.632 408.377 146.01 408.254 146.438 408.254C146.544 408.254 146.658 408.261 146.781 408.274C146.903 408.287 147.011 408.306 147.104 408.329V410.208C147.004 410.178 146.867 410.152 146.691 410.129C146.515 410.105 146.355 410.094 146.209 410.094C145.897 410.094 145.619 410.162 145.374 410.298C145.132 410.43 144.939 410.616 144.797 410.854C144.658 411.093 144.588 411.368 144.588 411.68V416H142.47ZM151.479 416V405.818H158.22V407.593H153.631V410.019H157.773V411.794H153.631V416H151.479ZM164.047 412.749V408.364H166.165V416H164.131V414.613H164.052C163.879 415.06 163.593 415.42 163.192 415.692C162.794 415.964 162.308 416.099 161.735 416.099C161.225 416.099 160.776 415.983 160.388 415.751C160 415.519 159.697 415.19 159.478 414.762C159.263 414.335 159.153 413.822 159.15 413.226V408.364H161.268V412.848C161.271 413.299 161.392 413.655 161.631 413.917C161.869 414.179 162.189 414.31 162.59 414.31C162.845 414.31 163.084 414.252 163.306 414.136C163.528 414.016 163.707 413.841 163.843 413.609C163.982 413.377 164.05 413.09 164.047 412.749ZM169.977 405.818V416H167.859V405.818H169.977ZM173.791 405.818V416H171.673V405.818H173.791ZM184.291 408.746C184.251 408.345 184.081 408.034 183.779 407.812C183.478 407.59 183.068 407.479 182.551 407.479C182.2 407.479 181.903 407.528 181.661 407.628C181.419 407.724 181.234 407.858 181.104 408.031C180.978 408.203 180.915 408.398 180.915 408.617C180.909 408.799 180.947 408.959 181.03 409.094C181.116 409.23 181.234 409.348 181.383 409.447C181.532 409.544 181.704 409.628 181.9 409.701C182.095 409.771 182.304 409.83 182.526 409.88L183.441 410.099C183.885 410.198 184.293 410.331 184.664 410.496C185.035 410.662 185.357 410.866 185.629 411.108C185.9 411.35 186.111 411.635 186.26 411.963C186.412 412.291 186.49 412.667 186.494 413.092C186.49 413.715 186.331 414.255 186.016 414.712C185.705 415.166 185.254 415.519 184.664 415.771C184.077 416.02 183.37 416.144 182.541 416.144C181.719 416.144 181.003 416.018 180.393 415.766C179.787 415.514 179.313 415.142 178.972 414.648C178.634 414.151 178.456 413.536 178.44 412.803H180.523C180.546 413.145 180.644 413.43 180.816 413.658C180.992 413.884 181.225 414.054 181.517 414.17C181.812 414.283 182.145 414.339 182.516 414.339C182.881 414.339 183.197 414.286 183.466 414.18C183.738 414.074 183.948 413.927 184.097 413.738C184.246 413.549 184.321 413.332 184.321 413.087C184.321 412.858 184.253 412.666 184.117 412.51C183.985 412.354 183.789 412.222 183.531 412.112C183.275 412.003 182.962 411.903 182.591 411.814L181.482 411.536C180.624 411.327 179.946 411 179.449 410.556C178.952 410.112 178.705 409.514 178.708 408.761C178.705 408.145 178.869 407.606 179.2 407.146C179.535 406.685 179.994 406.325 180.577 406.067C181.161 405.808 181.824 405.679 182.566 405.679C183.322 405.679 183.981 405.808 184.545 406.067C185.112 406.325 185.552 406.685 185.867 407.146C186.182 407.606 186.344 408.14 186.354 408.746H184.291ZM191.964 408.364V409.955H187.365V408.364H191.964ZM188.409 406.534H190.527V413.653C190.527 413.849 190.557 414.001 190.616 414.111C190.676 414.217 190.759 414.291 190.865 414.335C190.974 414.378 191.1 414.399 191.243 414.399C191.342 414.399 191.442 414.391 191.541 414.374C191.64 414.354 191.717 414.339 191.77 414.33L192.103 415.906C191.997 415.939 191.848 415.977 191.655 416.02C191.463 416.066 191.229 416.094 190.954 416.104C190.444 416.124 189.997 416.056 189.612 415.901C189.231 415.745 188.934 415.503 188.722 415.175C188.51 414.847 188.406 414.432 188.409 413.932V406.534ZM195.521 416.144C195.034 416.144 194.599 416.06 194.218 415.891C193.837 415.718 193.535 415.465 193.313 415.13C193.095 414.792 192.985 414.371 192.985 413.867C192.985 413.443 193.063 413.087 193.219 412.798C193.375 412.51 193.587 412.278 193.855 412.102C194.124 411.927 194.429 411.794 194.77 411.705C195.115 411.615 195.476 411.552 195.854 411.516C196.298 411.469 196.656 411.426 196.928 411.386C197.2 411.343 197.397 411.28 197.519 411.197C197.642 411.115 197.703 410.992 197.703 410.83V410.8C197.703 410.485 197.604 410.241 197.405 410.069C197.209 409.897 196.931 409.81 196.57 409.81C196.189 409.81 195.885 409.895 195.66 410.064C195.435 410.23 195.285 410.438 195.213 410.69L193.254 410.531C193.353 410.067 193.549 409.666 193.84 409.328C194.132 408.987 194.508 408.725 194.969 408.543C195.433 408.357 195.97 408.264 196.58 408.264C197.004 408.264 197.41 408.314 197.798 408.413C198.189 408.513 198.535 408.667 198.837 408.876C199.142 409.085 199.382 409.353 199.558 409.681C199.733 410.006 199.821 410.395 199.821 410.849V416H197.813V414.941H197.753C197.63 415.18 197.466 415.39 197.261 415.572C197.055 415.751 196.808 415.892 196.52 415.995C196.232 416.094 195.899 416.144 195.521 416.144ZM196.127 414.683C196.439 414.683 196.714 414.621 196.953 414.499C197.191 414.373 197.378 414.204 197.514 413.991C197.65 413.779 197.718 413.539 197.718 413.271V412.46C197.652 412.503 197.561 412.543 197.445 412.58C197.332 412.613 197.204 412.644 197.062 412.674C196.919 412.701 196.777 412.725 196.634 412.749C196.492 412.768 196.363 412.787 196.247 412.803C195.998 412.84 195.781 412.898 195.595 412.977C195.41 413.057 195.266 413.165 195.163 413.3C195.06 413.433 195.009 413.599 195.009 413.798C195.009 414.086 195.113 414.306 195.322 414.459C195.534 414.608 195.802 414.683 196.127 414.683ZM204.915 416.149C204.132 416.149 203.46 415.983 202.896 415.652C202.336 415.317 201.905 414.853 201.604 414.26C201.305 413.667 201.156 412.984 201.156 412.212C201.156 411.429 201.307 410.743 201.608 410.153C201.913 409.56 202.346 409.098 202.906 408.766C203.466 408.432 204.132 408.264 204.905 408.264C205.571 408.264 206.154 408.385 206.655 408.627C207.155 408.869 207.551 409.209 207.843 409.646C208.135 410.084 208.295 410.598 208.325 411.188H206.327C206.27 410.806 206.121 410.5 205.879 410.268C205.64 410.032 205.327 409.915 204.939 409.915C204.611 409.915 204.325 410.004 204.079 410.183C203.837 410.359 203.648 410.616 203.513 410.954C203.377 411.292 203.309 411.701 203.309 412.182C203.309 412.669 203.375 413.083 203.508 413.425C203.644 413.766 203.834 414.026 204.079 414.205C204.325 414.384 204.611 414.474 204.939 414.474C205.181 414.474 205.398 414.424 205.591 414.325C205.786 414.225 205.947 414.081 206.073 413.892C206.202 413.7 206.287 413.469 206.327 413.201H208.325C208.292 413.784 208.133 414.298 207.848 414.742C207.566 415.183 207.177 415.528 206.68 415.776C206.182 416.025 205.594 416.149 204.915 416.149ZM211.6 413.803L211.605 411.262H211.913L214.359 408.364H216.79L213.504 412.202H213.002L211.6 413.803ZM209.681 416V405.818H211.799V416H209.681ZM214.454 416L212.207 412.674L213.619 411.178L216.935 416H214.454Z" fill="white"/>
                <path d="M133.885 109.818H136.54L139.344 116.659H139.463L142.267 109.818H144.922V120H142.834V113.373H142.749L140.114 119.95H138.692L136.058 113.348H135.973V120H133.885V109.818ZM150.136 120.149C149.35 120.149 148.674 119.99 148.107 119.672C147.544 119.35 147.11 118.896 146.805 118.31C146.5 117.72 146.347 117.022 146.347 116.217C146.347 115.431 146.5 114.742 146.805 114.148C147.11 113.555 147.539 113.093 148.093 112.761C148.649 112.43 149.302 112.264 150.051 112.264C150.555 112.264 151.024 112.345 151.458 112.508C151.896 112.667 152.277 112.907 152.602 113.229C152.93 113.55 153.185 113.955 153.367 114.442C153.55 114.926 153.641 115.492 153.641 116.142V116.724H147.193V115.411H151.647C151.647 115.106 151.581 114.836 151.448 114.601C151.316 114.366 151.132 114.182 150.896 114.049C150.664 113.913 150.394 113.845 150.086 113.845C149.765 113.845 149.48 113.92 149.231 114.069C148.986 114.215 148.794 114.412 148.654 114.661C148.515 114.906 148.444 115.179 148.441 115.481V116.729C148.441 117.107 148.51 117.433 148.649 117.708C148.792 117.983 148.992 118.195 149.251 118.344C149.509 118.494 149.816 118.568 150.171 118.568C150.406 118.568 150.621 118.535 150.817 118.469C151.012 118.402 151.18 118.303 151.319 118.17C151.458 118.038 151.564 117.875 151.637 117.683L153.596 117.812C153.497 118.283 153.293 118.694 152.985 119.045C152.68 119.393 152.285 119.665 151.801 119.861C151.321 120.053 150.766 120.149 150.136 120.149ZM157.141 109.818V120H155.023V109.818H157.141ZM160.955 115.585V120H158.837V109.818H160.896V113.711H160.985C161.157 113.26 161.436 112.907 161.82 112.652C162.205 112.393 162.687 112.264 163.267 112.264C163.797 112.264 164.26 112.38 164.654 112.612C165.052 112.841 165.36 113.171 165.579 113.602C165.801 114.029 165.91 114.541 165.907 115.138V120H163.789V115.516C163.792 115.045 163.673 114.679 163.431 114.417C163.192 114.155 162.858 114.024 162.427 114.024C162.138 114.024 161.883 114.085 161.661 114.208C161.442 114.331 161.27 114.51 161.144 114.745C161.022 114.977 160.959 115.257 160.955 115.585ZM171.024 120.149C170.252 120.149 169.584 119.985 169.02 119.657C168.46 119.326 168.028 118.865 167.723 118.275C167.418 117.682 167.265 116.994 167.265 116.212C167.265 115.423 167.418 114.733 167.723 114.143C168.028 113.55 168.46 113.089 169.02 112.761C169.584 112.43 170.252 112.264 171.024 112.264C171.796 112.264 172.462 112.43 173.023 112.761C173.586 113.089 174.02 113.55 174.325 114.143C174.63 114.733 174.782 115.423 174.782 116.212C174.782 116.994 174.63 117.682 174.325 118.275C174.02 118.865 173.586 119.326 173.023 119.657C172.462 119.985 171.796 120.149 171.024 120.149ZM171.034 118.509C171.385 118.509 171.679 118.409 171.914 118.21C172.149 118.008 172.327 117.733 172.446 117.385C172.568 117.037 172.63 116.641 172.63 116.197C172.63 115.753 172.568 115.357 172.446 115.009C172.327 114.661 172.149 114.385 171.914 114.183C171.679 113.981 171.385 113.88 171.034 113.88C170.679 113.88 170.381 113.981 170.139 114.183C169.9 114.385 169.72 114.661 169.597 115.009C169.478 115.357 169.418 115.753 169.418 116.197C169.418 116.641 169.478 117.037 169.597 117.385C169.72 117.733 169.9 118.008 170.139 118.21C170.381 118.409 170.679 118.509 171.034 118.509ZM176.16 120V112.364H178.213V113.696H178.292C178.432 113.222 178.665 112.864 178.993 112.622C179.322 112.377 179.699 112.254 180.127 112.254C180.233 112.254 180.347 112.261 180.47 112.274C180.593 112.287 180.7 112.306 180.793 112.329V114.208C180.694 114.178 180.556 114.152 180.381 114.129C180.205 114.105 180.044 114.094 179.898 114.094C179.587 114.094 179.308 114.162 179.063 114.298C178.821 114.43 178.629 114.616 178.486 114.854C178.347 115.093 178.278 115.368 178.278 115.68V120H176.16ZM183.847 120.144C183.36 120.144 182.926 120.06 182.544 119.891C182.163 119.718 181.862 119.465 181.64 119.13C181.421 118.792 181.311 118.371 181.311 117.867C181.311 117.443 181.389 117.087 181.545 116.798C181.701 116.51 181.913 116.278 182.181 116.102C182.45 115.927 182.755 115.794 183.096 115.705C183.441 115.615 183.802 115.552 184.18 115.516C184.624 115.469 184.982 115.426 185.254 115.386C185.526 115.343 185.723 115.28 185.846 115.197C185.968 115.115 186.029 114.992 186.029 114.83V114.8C186.029 114.485 185.93 114.241 185.731 114.069C185.536 113.897 185.257 113.81 184.896 113.81C184.515 113.81 184.212 113.895 183.986 114.064C183.761 114.23 183.612 114.438 183.539 114.69L181.58 114.531C181.679 114.067 181.875 113.666 182.167 113.328C182.458 112.987 182.834 112.725 183.295 112.543C183.759 112.357 184.296 112.264 184.906 112.264C185.33 112.264 185.736 112.314 186.124 112.413C186.515 112.513 186.861 112.667 187.163 112.876C187.468 113.085 187.708 113.353 187.884 113.681C188.06 114.006 188.147 114.395 188.147 114.849V120H186.139V118.941H186.079C185.957 119.18 185.792 119.39 185.587 119.572C185.382 119.751 185.135 119.892 184.846 119.995C184.558 120.094 184.225 120.144 183.847 120.144ZM184.453 118.683C184.765 118.683 185.04 118.621 185.279 118.499C185.517 118.373 185.705 118.204 185.841 117.991C185.976 117.779 186.044 117.539 186.044 117.271V116.46C185.978 116.503 185.887 116.543 185.771 116.58C185.658 116.613 185.531 116.644 185.388 116.674C185.246 116.701 185.103 116.725 184.961 116.749C184.818 116.768 184.689 116.787 184.573 116.803C184.324 116.84 184.107 116.898 183.922 116.977C183.736 117.057 183.592 117.165 183.489 117.3C183.386 117.433 183.335 117.599 183.335 117.798C183.335 118.086 183.439 118.306 183.648 118.459C183.86 118.608 184.129 118.683 184.453 118.683ZM189.79 120V112.364H191.844V113.696H191.923C192.063 113.222 192.296 112.864 192.624 112.622C192.952 112.377 193.33 112.254 193.758 112.254C193.864 112.254 193.978 112.261 194.101 112.274C194.223 112.287 194.331 112.306 194.424 112.329V114.208C194.325 114.178 194.187 114.152 194.011 114.129C193.836 114.105 193.675 114.094 193.529 114.094C193.218 114.094 192.939 114.162 192.694 114.298C192.452 114.43 192.26 114.616 192.117 114.854C191.978 115.093 191.908 115.368 191.908 115.68V120H189.79ZM202.876 109.818H205.004V116.918C205.004 117.574 204.856 118.144 204.561 118.628C204.269 119.112 203.863 119.485 203.343 119.746C202.823 120.008 202.218 120.139 201.528 120.139C200.915 120.139 200.358 120.031 199.858 119.816C199.361 119.597 198.966 119.266 198.675 118.822C198.383 118.374 198.239 117.812 198.242 117.136H200.385C200.392 117.405 200.446 117.635 200.549 117.827C200.655 118.016 200.799 118.162 200.982 118.265C201.167 118.364 201.386 118.414 201.638 118.414C201.903 118.414 202.127 118.358 202.309 118.245C202.495 118.129 202.635 117.96 202.732 117.738C202.828 117.516 202.876 117.242 202.876 116.918V109.818ZM208.921 120.144C208.434 120.144 208 120.06 207.619 119.891C207.237 119.718 206.936 119.465 206.714 119.13C206.495 118.792 206.386 118.371 206.386 117.867C206.386 117.443 206.464 117.087 206.619 116.798C206.775 116.51 206.987 116.278 207.256 116.102C207.524 115.927 207.829 115.794 208.17 115.705C208.515 115.615 208.876 115.552 209.254 115.516C209.698 115.469 210.056 115.426 210.328 115.386C210.6 115.343 210.797 115.28 210.92 115.197C211.042 115.115 211.104 114.992 211.104 114.83V114.8C211.104 114.485 211.004 114.241 210.805 114.069C210.61 113.897 210.331 113.81 209.97 113.81C209.589 113.81 209.286 113.895 209.06 114.064C208.835 114.23 208.686 114.438 208.613 114.69L206.654 114.531C206.754 114.067 206.949 113.666 207.241 113.328C207.532 112.987 207.909 112.725 208.369 112.543C208.833 112.357 209.37 112.264 209.98 112.264C210.404 112.264 210.81 112.314 211.198 112.413C211.589 112.513 211.936 112.667 212.237 112.876C212.542 113.085 212.782 113.353 212.958 113.681C213.134 114.006 213.222 114.395 213.222 114.849V120H211.213V118.941H211.153C211.031 119.18 210.867 119.39 210.661 119.572C210.456 119.751 210.209 119.892 209.92 119.995C209.632 120.094 209.299 120.144 208.921 120.144ZM209.528 118.683C209.839 118.683 210.114 118.621 210.353 118.499C210.592 118.373 210.779 118.204 210.915 117.991C211.051 117.779 211.119 117.539 211.119 117.271V116.46C211.052 116.503 210.961 116.543 210.845 116.58C210.732 116.613 210.605 116.644 210.462 116.674C210.32 116.701 210.177 116.725 210.035 116.749C209.892 116.768 209.763 116.787 209.647 116.803C209.398 116.84 209.181 116.898 208.996 116.977C208.81 117.057 208.666 117.165 208.563 117.3C208.46 117.433 208.409 117.599 208.409 117.798C208.409 118.086 208.513 118.306 208.722 118.459C208.934 118.608 209.203 118.683 209.528 118.683ZM221.711 112.364L219.041 120H216.654L213.985 112.364H216.222L217.808 117.827H217.887L219.468 112.364H221.711ZM224.767 120.144C224.28 120.144 223.845 120.06 223.464 119.891C223.083 119.718 222.782 119.465 222.559 119.13C222.341 118.792 222.231 118.371 222.231 117.867C222.231 117.443 222.309 117.087 222.465 116.798C222.621 116.51 222.833 116.278 223.101 116.102C223.37 115.927 223.675 115.794 224.016 115.705C224.361 115.615 224.722 115.552 225.1 115.516C225.544 115.469 225.902 115.426 226.174 115.386C226.446 115.343 226.643 115.28 226.765 115.197C226.888 115.115 226.949 114.992 226.949 114.83V114.8C226.949 114.485 226.85 114.241 226.651 114.069C226.456 113.897 226.177 113.81 225.816 113.81C225.435 113.81 225.131 113.895 224.906 114.064C224.681 114.23 224.532 114.438 224.459 114.69L222.5 114.531C222.599 114.067 222.795 113.666 223.086 113.328C223.378 112.987 223.754 112.725 224.215 112.543C224.679 112.357 225.216 112.264 225.826 112.264C226.25 112.264 226.656 112.314 227.044 112.413C227.435 112.513 227.781 112.667 228.083 112.876C228.388 113.085 228.628 113.353 228.804 113.681C228.979 114.006 229.067 114.395 229.067 114.849V120H227.059V118.941H226.999C226.876 119.18 226.712 119.39 226.507 119.572C226.301 119.751 226.055 119.892 225.766 119.995C225.478 120.094 225.145 120.144 224.767 120.144ZM225.373 118.683C225.685 118.683 225.96 118.621 226.199 118.499C226.437 118.373 226.625 118.204 226.76 117.991C226.896 117.779 226.964 117.539 226.964 117.271V116.46C226.898 116.503 226.807 116.543 226.691 116.58C226.578 116.613 226.451 116.644 226.308 116.674C226.166 116.701 226.023 116.725 225.881 116.749C225.738 116.768 225.609 116.787 225.493 116.803C225.244 116.84 225.027 116.898 224.841 116.977C224.656 117.057 224.512 117.165 224.409 117.3C224.306 117.433 224.255 117.599 224.255 117.798C224.255 118.086 224.359 118.306 224.568 118.459C224.78 118.608 225.049 118.683 225.373 118.683ZM236.274 112.746C236.234 112.345 236.063 112.034 235.762 111.812C235.46 111.59 235.051 111.479 234.534 111.479C234.182 111.479 233.886 111.528 233.644 111.628C233.402 111.724 233.216 111.858 233.087 112.031C232.961 112.203 232.898 112.398 232.898 112.617C232.891 112.799 232.929 112.959 233.012 113.094C233.098 113.23 233.216 113.348 233.365 113.447C233.514 113.544 233.687 113.628 233.882 113.701C234.078 113.771 234.287 113.83 234.509 113.88L235.423 114.099C235.868 114.198 236.275 114.331 236.646 114.496C237.018 114.662 237.339 114.866 237.611 115.108C237.883 115.35 238.093 115.635 238.242 115.963C238.395 116.291 238.473 116.667 238.476 117.092C238.473 117.715 238.314 118.255 237.999 118.712C237.687 119.166 237.236 119.519 236.646 119.771C236.06 120.02 235.352 120.144 234.524 120.144C233.702 120.144 232.986 120.018 232.376 119.766C231.769 119.514 231.295 119.142 230.954 118.648C230.616 118.151 230.439 117.536 230.422 116.803H232.505C232.528 117.145 232.626 117.43 232.798 117.658C232.974 117.884 233.208 118.054 233.499 118.17C233.794 118.283 234.128 118.339 234.499 118.339C234.863 118.339 235.18 118.286 235.448 118.18C235.72 118.074 235.931 117.927 236.08 117.738C236.229 117.549 236.303 117.332 236.303 117.087C236.303 116.858 236.235 116.666 236.1 116.51C235.967 116.354 235.771 116.222 235.513 116.112C235.258 116.003 234.945 115.903 234.573 115.814L233.465 115.536C232.606 115.327 231.928 115 231.431 114.556C230.934 114.112 230.687 113.514 230.691 112.761C230.687 112.145 230.851 111.606 231.183 111.146C231.517 110.685 231.977 110.325 232.56 110.067C233.143 109.808 233.806 109.679 234.548 109.679C235.304 109.679 235.964 109.808 236.527 110.067C237.094 110.325 237.535 110.685 237.85 111.146C238.164 111.606 238.327 112.14 238.337 112.746H236.274ZM243.335 120.149C242.552 120.149 241.879 119.983 241.316 119.652C240.756 119.317 240.325 118.853 240.023 118.26C239.725 117.667 239.576 116.984 239.576 116.212C239.576 115.429 239.727 114.743 240.028 114.153C240.333 113.56 240.766 113.098 241.326 112.766C241.886 112.432 242.552 112.264 243.325 112.264C243.991 112.264 244.574 112.385 245.075 112.627C245.575 112.869 245.971 113.209 246.263 113.646C246.554 114.084 246.715 114.598 246.745 115.188H244.746C244.69 114.806 244.541 114.5 244.299 114.268C244.06 114.032 243.747 113.915 243.359 113.915C243.031 113.915 242.745 114.004 242.499 114.183C242.257 114.359 242.068 114.616 241.933 114.954C241.797 115.292 241.729 115.701 241.729 116.182C241.729 116.669 241.795 117.083 241.928 117.425C242.063 117.766 242.254 118.026 242.499 118.205C242.745 118.384 243.031 118.474 243.359 118.474C243.601 118.474 243.818 118.424 244.011 118.325C244.206 118.225 244.367 118.081 244.493 117.892C244.622 117.7 244.707 117.469 244.746 117.201H246.745C246.712 117.784 246.553 118.298 246.268 118.742C245.986 119.183 245.597 119.528 245.099 119.776C244.602 120.025 244.014 120.149 243.335 120.149ZM248.101 120V112.364H250.154V113.696H250.234C250.373 113.222 250.607 112.864 250.935 112.622C251.263 112.377 251.641 112.254 252.068 112.254C252.174 112.254 252.289 112.261 252.411 112.274C252.534 112.287 252.642 112.306 252.735 112.329V114.208C252.635 114.178 252.498 114.152 252.322 114.129C252.146 114.105 251.985 114.094 251.84 114.094C251.528 114.094 251.25 114.162 251.004 114.298C250.762 114.43 250.57 114.616 250.428 114.854C250.289 115.093 250.219 115.368 250.219 115.68V120H248.101ZM253.83 120V112.364H255.947V120H253.83ZM254.893 111.379C254.579 111.379 254.308 111.275 254.083 111.066C253.861 110.854 253.75 110.6 253.75 110.305C253.75 110.014 253.861 109.763 254.083 109.555C254.308 109.343 254.579 109.237 254.893 109.237C255.208 109.237 255.477 109.343 255.699 109.555C255.924 109.763 256.037 110.014 256.037 110.305C256.037 110.6 255.924 110.854 255.699 111.066C255.477 111.275 255.208 111.379 254.893 111.379ZM257.644 122.864V112.364H259.732V113.646H259.827C259.919 113.441 260.054 113.232 260.229 113.02C260.408 112.804 260.64 112.625 260.925 112.483C261.214 112.337 261.572 112.264 261.999 112.264C262.556 112.264 263.07 112.41 263.54 112.702C264.011 112.99 264.387 113.426 264.669 114.009C264.951 114.589 265.091 115.317 265.091 116.192C265.091 117.044 264.954 117.763 264.679 118.349C264.407 118.933 264.036 119.375 263.565 119.677C263.098 119.975 262.574 120.124 261.994 120.124C261.583 120.124 261.233 120.056 260.945 119.92C260.66 119.785 260.426 119.614 260.244 119.408C260.062 119.2 259.923 118.989 259.827 118.777H259.762V122.864H257.644ZM259.717 116.182C259.717 116.636 259.78 117.032 259.906 117.37C260.032 117.708 260.214 117.972 260.453 118.161C260.692 118.346 260.982 118.439 261.323 118.439C261.668 118.439 261.959 118.344 262.198 118.156C262.437 117.963 262.617 117.698 262.74 117.36C262.866 117.019 262.929 116.626 262.929 116.182C262.929 115.741 262.867 115.353 262.745 115.018C262.622 114.684 262.442 114.422 262.203 114.233C261.964 114.044 261.671 113.95 261.323 113.95C260.978 113.95 260.687 114.041 260.448 114.223C260.213 114.405 260.032 114.664 259.906 114.999C259.78 115.333 259.717 115.728 259.717 116.182ZM270.565 112.364V113.955H265.966V112.364H270.565ZM267.01 110.534H269.128V117.653C269.128 117.849 269.158 118.001 269.218 118.111C269.278 118.217 269.36 118.291 269.466 118.335C269.576 118.378 269.702 118.399 269.844 118.399C269.944 118.399 270.043 118.391 270.143 118.374C270.242 118.354 270.318 118.339 270.371 118.33L270.704 119.906C270.598 119.939 270.449 119.977 270.257 120.02C270.065 120.066 269.831 120.094 269.556 120.104C269.046 120.124 268.598 120.056 268.214 119.901C267.832 119.745 267.536 119.503 267.324 119.175C267.112 118.847 267.007 118.432 267.01 117.932V110.534Z" fill="white"/>
                <path d="M46.8686 8.38281H44.6911C44.6513 8.10109 44.5701 7.85085 44.4474 7.6321C44.3248 7.41004 44.1674 7.22112 43.9751 7.06534C43.7829 6.90956 43.5608 6.79025 43.3089 6.70739C43.0604 6.62453 42.7902 6.5831 42.4986 6.5831C41.9716 6.5831 41.5125 6.71402 41.1214 6.97585C40.7304 7.23437 40.4271 7.61222 40.2116 8.10938C39.9962 8.60322 39.8885 9.20312 39.8885 9.90909C39.8885 10.6349 39.9962 11.2448 40.2116 11.7386C40.4304 12.2325 40.7353 12.6054 41.1264 12.8572C41.5175 13.1091 41.9699 13.2351 42.4837 13.2351C42.772 13.2351 43.0388 13.197 43.2841 13.1207C43.5327 13.0445 43.7531 12.9335 43.9453 12.7876C44.1375 12.6385 44.2966 12.4579 44.4226 12.2457C44.5518 12.0336 44.6413 11.7917 44.6911 11.5199L46.8686 11.5298C46.8123 11.9972 46.6714 12.4479 46.446 12.8821C46.224 13.313 45.924 13.6991 45.5462 14.0405C45.1716 14.3786 44.7242 14.647 44.2038 14.8459C43.6868 15.0414 43.1018 15.1392 42.4489 15.1392C41.5407 15.1392 40.7287 14.9337 40.0128 14.5227C39.3002 14.1117 38.7367 13.5168 38.3224 12.7379C37.9115 11.959 37.706 11.0161 37.706 9.90909C37.706 8.79877 37.9148 7.85417 38.3324 7.07528C38.75 6.2964 39.3168 5.70312 40.0327 5.29545C40.7486 4.88447 41.554 4.67898 42.4489 4.67898C43.0388 4.67898 43.5857 4.76184 44.0895 4.92756C44.5966 5.09328 45.0457 5.33523 45.4368 5.65341C45.8279 5.96828 46.1461 6.3544 46.3913 6.81179C46.6399 7.26918 46.799 7.79285 46.8686 8.38281ZM48.3725 15V7.36364H50.4258V8.69602H50.5053C50.6445 8.22206 50.8782 7.86411 51.2063 7.62216C51.5344 7.37689 51.9123 7.25426 52.3398 7.25426C52.4459 7.25426 52.5603 7.26089 52.6829 7.27415C52.8055 7.28741 52.9132 7.30563 53.006 7.32883V9.2081C52.9066 9.17827 52.7691 9.15175 52.5934 9.12855C52.4177 9.10535 52.257 9.09375 52.1112 9.09375C51.7996 9.09375 51.5212 9.1617 51.2759 9.29759C51.034 9.43016 50.8417 9.61577 50.6992 9.8544C50.56 10.093 50.4904 10.3681 50.4904 10.6797V15H48.3725ZM54.101 15V7.36364H56.2189V15H54.101ZM55.165 6.37926C54.8501 6.37926 54.58 6.27486 54.3546 6.06605C54.1325 5.85393 54.0215 5.60038 54.0215 5.3054C54.0215 5.01373 54.1325 4.76349 54.3546 4.55469C54.58 4.34257 54.8501 4.23651 55.165 4.23651C55.4798 4.23651 55.7483 4.34257 55.9703 4.55469C56.1957 4.76349 56.3084 5.01373 56.3084 5.3054C56.3084 5.60038 56.1957 5.85393 55.9703 6.06605C55.7483 6.27486 55.4798 6.37926 55.165 6.37926ZM60.093 15.1442C59.6058 15.1442 59.1716 15.0597 58.7905 14.8906C58.4093 14.7183 58.1077 14.4647 57.8857 14.13C57.6669 13.7919 57.5575 13.371 57.5575 12.8672C57.5575 12.4429 57.6354 12.0866 57.7912 11.7983C57.947 11.5099 58.1591 11.2779 58.4276 11.1023C58.696 10.9266 59.0009 10.794 59.3423 10.7045C59.687 10.6151 60.0483 10.5521 60.4261 10.5156C60.8703 10.4692 61.2282 10.4261 61.5 10.3864C61.7718 10.3433 61.969 10.2803 62.0916 10.1974C62.2143 10.1146 62.2756 9.99195 62.2756 9.82955V9.79972C62.2756 9.48485 62.1761 9.24124 61.9773 9.06889C61.7817 8.89654 61.5033 8.81037 61.142 8.81037C60.7609 8.81037 60.4576 8.89489 60.2322 9.06392C60.0069 9.22964 59.8577 9.43845 59.7848 9.69034L57.826 9.53125C57.9254 9.06723 58.121 8.66619 58.4126 8.32812C58.7043 7.98674 59.0805 7.7249 59.5412 7.54261C60.0052 7.35701 60.5421 7.2642 61.152 7.2642C61.5762 7.2642 61.9822 7.31392 62.37 7.41335C62.7611 7.51278 63.1075 7.6669 63.4091 7.87571C63.714 8.08452 63.9543 8.35298 64.13 8.68111C64.3056 9.00592 64.3935 9.39536 64.3935 9.84943V15H62.3849V13.9411H62.3253C62.2027 14.1797 62.0386 14.3902 61.8331 14.5724C61.6276 14.7514 61.3807 14.8923 61.0923 14.995C60.804 15.0945 60.4709 15.1442 60.093 15.1442ZM60.6996 13.6825C61.0111 13.6825 61.2862 13.6212 61.5249 13.4986C61.7635 13.3726 61.9508 13.2036 62.0866 12.9915C62.2225 12.7794 62.2905 12.5391 62.2905 12.2706V11.4602C62.2242 11.5033 62.133 11.5431 62.017 11.5795C61.9044 11.6127 61.7768 11.6442 61.6342 11.674C61.4917 11.7005 61.3492 11.7254 61.2067 11.7486C61.0642 11.7685 60.9349 11.7867 60.8189 11.8033C60.5703 11.8397 60.3532 11.8977 60.1676 11.9773C59.982 12.0568 59.8378 12.1645 59.7351 12.3004C59.6323 12.433 59.581 12.5987 59.581 12.7976C59.581 13.0859 59.6854 13.3063 59.8942 13.4588C60.1063 13.608 60.3748 13.6825 60.6996 13.6825ZM69.4869 15.1491C68.7047 15.1491 68.0318 14.9834 67.4684 14.652C66.9083 14.3172 66.4774 13.8532 66.1758 13.2599C65.8775 12.6667 65.7283 11.9839 65.7283 11.2116C65.7283 10.4295 65.8791 9.74337 66.1808 9.15341C66.4857 8.56013 66.9182 8.09777 67.4783 7.76633C68.0385 7.43158 68.7047 7.2642 69.4769 7.2642C70.1431 7.2642 70.7264 7.38518 71.2269 7.62713C71.7274 7.86908 72.1235 8.20881 72.4151 8.64631C72.7068 9.08381 72.8675 9.59754 72.8974 10.1875H70.8988C70.8424 9.80634 70.6933 9.49976 70.4513 9.26776C70.2127 9.03243 69.8995 8.91477 69.5117 8.91477C69.1836 8.91477 68.8969 9.00426 68.6516 9.18324C68.4097 9.3589 68.2208 9.61577 68.0849 9.95384C67.949 10.2919 67.881 10.7012 67.881 11.1818C67.881 11.669 67.9473 12.0833 68.0799 12.4247C68.2158 12.7661 68.4064 13.0263 68.6516 13.2053C68.8969 13.3842 69.1836 13.4737 69.5117 13.4737C69.7537 13.4737 69.9708 13.424 70.163 13.3246C70.3585 13.2251 70.5193 13.081 70.6452 12.892C70.7745 12.6998 70.859 12.4695 70.8988 12.201H72.8974C72.8642 12.7843 72.7051 13.2981 72.4201 13.7422C72.1384 14.183 71.7489 14.5277 71.2518 14.7763C70.7546 15.0249 70.1663 15.1491 69.4869 15.1491ZM68.9897 14.9602H69.9641L69.8846 15.3928C70.226 15.4458 70.5044 15.5734 70.7198 15.7756C70.9386 15.9777 71.0496 16.2528 71.0529 16.6009C71.0562 17.0947 70.8275 17.4875 70.3668 17.7791C69.9061 18.0741 69.2598 18.2216 68.4279 18.2216L68.408 17.277C68.8256 17.277 69.1521 17.2256 69.3874 17.1229C69.6261 17.0234 69.7504 16.8677 69.7603 16.6555C69.7669 16.4534 69.689 16.2992 69.5266 16.1932C69.3642 16.0871 69.1107 16.0125 68.766 15.9695L68.9897 14.9602ZM76.4309 15.1442C75.9437 15.1442 75.5095 15.0597 75.1284 14.8906C74.7472 14.7183 74.4456 14.4647 74.2235 14.13C74.0048 13.7919 73.8954 13.371 73.8954 12.8672C73.8954 12.4429 73.9733 12.0866 74.1291 11.7983C74.2849 11.5099 74.497 11.2779 74.7654 11.1023C75.0339 10.9266 75.3388 10.794 75.6802 10.7045C76.0249 10.6151 76.3862 10.5521 76.764 10.5156C77.2082 10.4692 77.5661 10.4261 77.8379 10.3864C78.1097 10.3433 78.3069 10.2803 78.4295 10.1974C78.5521 10.1146 78.6135 9.99195 78.6135 9.82955V9.79972C78.6135 9.48485 78.514 9.24124 78.3152 9.06889C78.1196 8.89654 77.8412 8.81037 77.4799 8.81037C77.0988 8.81037 76.7955 8.89489 76.5701 9.06392C76.3448 9.22964 76.1956 9.43845 76.1227 9.69034L74.1639 9.53125C74.2633 9.06723 74.4589 8.66619 74.7505 8.32812C75.0422 7.98674 75.4184 7.7249 75.8791 7.54261C76.3431 7.35701 76.88 7.2642 77.4899 7.2642C77.9141 7.2642 78.3201 7.31392 78.7079 7.41335C79.099 7.51278 79.4454 7.6669 79.747 7.87571C80.0519 8.08452 80.2922 8.35298 80.4679 8.68111C80.6435 9.00592 80.7314 9.39536 80.7314 9.84943V15H78.7228V13.9411H78.6632C78.5405 14.1797 78.3765 14.3902 78.171 14.5724C77.9655 14.7514 77.7186 14.8923 77.4302 14.995C77.1419 15.0945 76.8088 15.1442 76.4309 15.1442ZM77.0375 13.6825C77.349 13.6825 77.6241 13.6212 77.8627 13.4986C78.1014 13.3726 78.2886 13.2036 78.4245 12.9915C78.5604 12.7794 78.6284 12.5391 78.6284 12.2706V11.4602C78.5621 11.5033 78.4709 11.5431 78.3549 11.5795C78.2422 11.6127 78.1146 11.6442 77.9721 11.674C77.8296 11.7005 77.6871 11.7254 77.5446 11.7486C77.402 11.7685 77.2728 11.7867 77.1568 11.8033C76.9082 11.8397 76.6911 11.8977 76.5055 11.9773C76.3199 12.0568 76.1757 12.1645 76.073 12.3004C75.9702 12.433 75.9189 12.5987 75.9189 12.7976C75.9189 13.0859 76.0233 13.3063 76.2321 13.4588C76.4442 13.608 76.7127 13.6825 77.0375 13.6825ZM76.1475 6.42401L74.9693 6.40909C74.9693 5.77604 75.1251 5.29048 75.4366 4.95241C75.7515 4.61435 76.1343 4.44366 76.585 4.44034C76.8171 4.44034 77.0159 4.47846 77.1816 4.55469C77.3507 4.6276 77.5015 4.71378 77.6341 4.81321C77.7699 4.91264 77.8992 5.00047 78.0218 5.0767C78.1445 5.14962 78.277 5.18608 78.4196 5.18608C78.6118 5.18277 78.7576 5.11151 78.8571 4.9723C78.9598 4.82978 79.0112 4.64418 79.0112 4.41548L80.1696 4.45028C80.1629 5.0767 80.0038 5.56061 79.6923 5.90199C79.3807 6.24006 79.0012 6.41075 78.5538 6.41406C78.3052 6.41406 78.0964 6.3776 77.9274 6.30469C77.7617 6.22846 77.6158 6.14228 77.4899 6.04616C77.3639 5.94673 77.2413 5.8589 77.122 5.78267C77.0027 5.70644 76.8684 5.66832 76.7193 5.66832C76.5469 5.66832 76.4077 5.73627 76.3017 5.87216C76.1989 6.00805 76.1475 6.192 76.1475 6.42401ZM85.8248 15.1491C85.0525 15.1491 84.3846 14.9851 83.8212 14.657C83.2611 14.3255 82.8285 13.8648 82.5236 13.2749C82.2187 12.6816 82.0662 11.9938 82.0662 11.2116C82.0662 10.4228 82.2187 9.73343 82.5236 9.14347C82.8285 8.55019 83.2611 8.08949 83.8212 7.76136C84.3846 7.42992 85.0525 7.2642 85.8248 7.2642C86.597 7.2642 87.2632 7.42992 87.8233 7.76136C88.3868 8.08949 88.821 8.55019 89.1259 9.14347C89.4308 9.73343 89.5833 10.4228 89.5833 11.2116C89.5833 11.9938 89.4308 12.6816 89.1259 13.2749C88.821 13.8648 88.3868 14.3255 87.8233 14.657C87.2632 14.9851 86.597 15.1491 85.8248 15.1491ZM85.8347 13.5085C86.186 13.5085 86.4793 13.4091 86.7147 13.2102C86.95 13.008 87.1273 12.733 87.2466 12.3849C87.3693 12.0369 87.4306 11.6409 87.4306 11.1967C87.4306 10.7526 87.3693 10.3565 87.2466 10.0085C87.1273 9.66051 86.95 9.38542 86.7147 9.18324C86.4793 8.98106 86.186 8.87997 85.8347 8.87997C85.4801 8.87997 85.1818 8.98106 84.9398 9.18324C84.7012 9.38542 84.5205 9.66051 84.3979 10.0085C84.2786 10.3565 84.2189 10.7526 84.2189 11.1967C84.2189 11.6409 84.2786 12.0369 84.3979 12.3849C84.5205 12.733 84.7012 13.008 84.9398 13.2102C85.1818 13.4091 85.4801 13.5085 85.8347 13.5085ZM97.0146 15.1243C96.4345 15.1243 95.9092 14.9751 95.4386 14.6768C94.9712 14.3752 94.6 13.9328 94.3249 13.3494C94.0531 12.7628 93.9173 12.0436 93.9173 11.1918C93.9173 10.3168 94.0581 9.58925 94.3398 9.00923C94.6216 8.4259 94.9961 7.99006 95.4634 7.7017C95.9341 7.41004 96.4495 7.2642 97.0096 7.2642C97.4371 7.2642 97.7934 7.33712 98.0785 7.48295C98.3668 7.62547 98.5988 7.80445 98.7745 8.01989C98.9535 8.23201 99.0894 8.44081 99.1822 8.64631H99.2468V4.81818H101.36V15H99.2717V13.777H99.1822C99.0827 13.9891 98.9419 14.1996 98.7596 14.4084C98.5806 14.6139 98.3469 14.7846 98.0586 14.9205C97.7736 15.0563 97.4255 15.1243 97.0146 15.1243ZM97.6857 13.4389C98.0271 13.4389 98.3155 13.3461 98.5508 13.1605C98.7894 12.9716 98.9717 12.7081 99.0977 12.37C99.2269 12.032 99.2915 11.6359 99.2915 11.1818C99.2915 10.7277 99.2286 10.3333 99.1026 9.99858C98.9767 9.66383 98.7944 9.4053 98.5558 9.22301C98.3171 9.04072 98.0271 8.94957 97.6857 8.94957C97.3377 8.94957 97.0444 9.04403 96.8058 9.23295C96.5671 9.42187 96.3865 9.68371 96.2638 10.0185C96.1412 10.3532 96.0799 10.741 96.0799 11.1818C96.0799 11.6259 96.1412 12.0187 96.2638 12.3601C96.3898 12.6982 96.5704 12.9633 96.8058 13.1555C97.0444 13.3445 97.3377 13.4389 97.6857 13.4389ZM106.551 15.1491C105.779 15.1491 105.111 14.9851 104.548 14.657C103.988 14.3255 103.555 13.8648 103.25 13.2749C102.945 12.6816 102.793 11.9938 102.793 11.2116C102.793 10.4228 102.945 9.73343 103.25 9.14347C103.555 8.55019 103.988 8.08949 104.548 7.76136C105.111 7.42992 105.779 7.2642 106.551 7.2642C107.324 7.2642 107.99 7.42992 108.55 7.76136C109.113 8.08949 109.548 8.55019 109.852 9.14347C110.157 9.73343 110.31 10.4228 110.31 11.2116C110.31 11.9938 110.157 12.6816 109.852 13.2749C109.548 13.8648 109.113 14.3255 108.55 14.657C107.99 14.9851 107.324 15.1491 106.551 15.1491ZM106.561 13.5085C106.913 13.5085 107.206 13.4091 107.441 13.2102C107.677 13.008 107.854 12.733 107.973 12.3849C108.096 12.0369 108.157 11.6409 108.157 11.1967C108.157 10.7526 108.096 10.3565 107.973 10.0085C107.854 9.66051 107.677 9.38542 107.441 9.18324C107.206 8.98106 106.913 8.87997 106.561 8.87997C106.207 8.87997 105.908 8.98106 105.666 9.18324C105.428 9.38542 105.247 9.66051 105.124 10.0085C105.005 10.3565 104.945 10.7526 104.945 11.1967C104.945 11.6409 105.005 12.0369 105.124 12.3849C105.247 12.733 105.428 13.008 105.666 13.2102C105.908 13.4091 106.207 13.5085 106.561 13.5085ZM114.927 17.8636V7.36364H117.015V8.64631H117.11C117.203 8.44081 117.337 8.23201 117.512 8.01989C117.691 7.80445 117.923 7.62547 118.208 7.48295C118.497 7.33712 118.855 7.2642 119.282 7.2642C119.839 7.2642 120.353 7.41004 120.824 7.7017C121.294 7.99006 121.67 8.4259 121.952 9.00923C122.234 9.58925 122.375 10.3168 122.375 11.1918C122.375 12.0436 122.237 12.7628 121.962 13.3494C121.69 13.9328 121.319 14.3752 120.848 14.6768C120.381 14.9751 119.857 15.1243 119.277 15.1243C118.866 15.1243 118.517 15.0563 118.228 14.9205C117.943 14.7846 117.71 14.6139 117.527 14.4084C117.345 14.1996 117.206 13.9891 117.11 13.777H117.045V17.8636H114.927ZM117 11.1818C117 11.6359 117.063 12.032 117.189 12.37C117.315 12.7081 117.498 12.9716 117.736 13.1605C117.975 13.3461 118.265 13.4389 118.606 13.4389C118.951 13.4389 119.243 13.3445 119.481 13.1555C119.72 12.9633 119.9 12.6982 120.023 12.3601C120.149 12.0187 120.212 11.6259 120.212 11.1818C120.212 10.741 120.151 10.3532 120.028 10.0185C119.905 9.68371 119.725 9.42187 119.486 9.23295C119.248 9.04403 118.954 8.94957 118.606 8.94957C118.261 8.94957 117.97 9.04072 117.731 9.22301C117.496 9.4053 117.315 9.66383 117.189 9.99858C117.063 10.3333 117 10.7277 117 11.1818ZM127.237 15.1491C126.465 15.1491 125.797 14.9851 125.233 14.657C124.673 14.3255 124.241 13.8648 123.936 13.2749C123.631 12.6816 123.478 11.9938 123.478 11.2116C123.478 10.4228 123.631 9.73343 123.936 9.14347C124.241 8.55019 124.673 8.08949 125.233 7.76136C125.797 7.42992 126.465 7.2642 127.237 7.2642C128.009 7.2642 128.675 7.42992 129.235 7.76136C129.799 8.08949 130.233 8.55019 130.538 9.14347C130.843 9.73343 130.995 10.4228 130.995 11.2116C130.995 11.9938 130.843 12.6816 130.538 13.2749C130.233 13.8648 129.799 14.3255 129.235 14.657C128.675 14.9851 128.009 15.1491 127.237 15.1491ZM127.247 13.5085C127.598 13.5085 127.891 13.4091 128.127 13.2102C128.362 13.008 128.539 12.733 128.659 12.3849C128.781 12.0369 128.843 11.6409 128.843 11.1967C128.843 10.7526 128.781 10.3565 128.659 10.0085C128.539 9.66051 128.362 9.38542 128.127 9.18324C127.891 8.98106 127.598 8.87997 127.247 8.87997C126.892 8.87997 126.594 8.98106 126.352 9.18324C126.113 9.38542 125.933 9.66051 125.81 10.0085C125.691 10.3565 125.631 10.7526 125.631 11.1967C125.631 11.6409 125.691 12.0369 125.81 12.3849C125.933 12.733 126.113 13.008 126.352 13.2102C126.594 13.4091 126.892 13.5085 127.247 13.5085ZM132.373 15V7.36364H134.426V8.69602H134.505C134.645 8.22206 134.878 7.86411 135.206 7.62216C135.534 7.37689 135.912 7.25426 136.34 7.25426C136.446 7.25426 136.56 7.26089 136.683 7.27415C136.806 7.28741 136.913 7.30563 137.006 7.32883V9.2081C136.907 9.17827 136.769 9.15175 136.593 9.12855C136.418 9.10535 136.257 9.09375 136.111 9.09375C135.8 9.09375 135.521 9.1617 135.276 9.29759C135.034 9.43016 134.842 9.61577 134.699 9.8544C134.56 10.093 134.49 10.3681 134.49 10.6797V15H132.373ZM142.546 7.36364V8.95455H137.947V7.36364H142.546ZM138.991 5.53409H141.109V12.6534C141.109 12.849 141.139 13.0014 141.198 13.1108C141.258 13.2169 141.341 13.2914 141.447 13.3345C141.556 13.3776 141.682 13.3991 141.825 13.3991C141.924 13.3991 142.024 13.3909 142.123 13.3743C142.222 13.3544 142.299 13.3395 142.352 13.3295L142.685 14.9055C142.579 14.9387 142.43 14.9768 142.237 15.0199C142.045 15.0663 141.811 15.0945 141.536 15.1044C141.026 15.1243 140.579 15.0563 140.194 14.9006C139.813 14.7448 139.516 14.5028 139.304 14.1747C139.092 13.8466 138.988 13.4323 138.991 12.9318V5.53409ZM143.925 15V7.36364H146.043V15H143.925ZM144.989 6.37926C144.674 6.37926 144.404 6.27486 144.179 6.06605C143.957 5.85393 143.846 5.60038 143.846 5.3054C143.846 5.01373 143.957 4.76349 144.179 4.55469C144.404 4.34257 144.674 4.23651 144.989 4.23651C145.304 4.23651 145.573 4.34257 145.795 4.55469C146.02 4.76349 146.133 5.01373 146.133 5.3054C146.133 5.60038 146.02 5.85393 145.795 6.06605C145.573 6.27486 145.304 6.37926 144.989 6.37926ZM151.846 7.36364V8.95455H147.133V7.36364H151.846ZM148.212 15V6.81179C148.212 6.25829 148.32 5.79924 148.535 5.43466C148.754 5.07008 149.052 4.79664 149.43 4.61435C149.808 4.43205 150.237 4.34091 150.718 4.34091C151.042 4.34091 151.339 4.36577 151.608 4.41548C151.879 4.4652 152.082 4.50994 152.214 4.54972L151.836 6.14062C151.753 6.11411 151.651 6.08925 151.528 6.06605C151.409 6.04285 151.286 6.03125 151.16 6.03125C150.849 6.03125 150.632 6.10417 150.509 6.25C150.386 6.39252 150.325 6.59304 150.325 6.85156V15H148.212ZM156.317 15.1491C155.545 15.1491 154.877 14.9851 154.313 14.657C153.753 14.3255 153.321 13.8648 153.016 13.2749C152.711 12.6816 152.558 11.9938 152.558 11.2116C152.558 10.4228 152.711 9.73343 153.016 9.14347C153.321 8.55019 153.753 8.08949 154.313 7.76136C154.877 7.42992 155.545 7.2642 156.317 7.2642C157.089 7.2642 157.755 7.42992 158.316 7.76136C158.879 8.08949 159.313 8.55019 159.618 9.14347C159.923 9.73343 160.075 10.4228 160.075 11.2116C160.075 11.9938 159.923 12.6816 159.618 13.2749C159.313 13.8648 158.879 14.3255 158.316 14.657C157.755 14.9851 157.089 15.1491 156.317 15.1491ZM156.327 13.5085C156.678 13.5085 156.972 13.4091 157.207 13.2102C157.442 13.008 157.619 12.733 157.739 12.3849C157.861 12.0369 157.923 11.6409 157.923 11.1967C157.923 10.7526 157.861 10.3565 157.739 10.0085C157.619 9.66051 157.442 9.38542 157.207 9.18324C156.972 8.98106 156.678 8.87997 156.327 8.87997C155.972 8.87997 155.674 8.98106 155.432 9.18324C155.193 9.38542 155.013 9.66051 154.89 10.0085C154.771 10.3565 154.711 10.7526 154.711 11.1967C154.711 11.6409 154.771 12.0369 154.89 12.3849C155.013 12.733 155.193 13.008 155.432 13.2102C155.674 13.4091 155.972 13.5085 156.327 13.5085ZM163.57 4.81818V15H161.453V4.81818H163.57ZM165.267 15V7.36364H167.385V15H165.267ZM166.331 6.37926C166.016 6.37926 165.746 6.27486 165.521 6.06605C165.299 5.85393 165.188 5.60038 165.188 5.3054C165.188 5.01373 165.299 4.76349 165.521 4.55469C165.746 4.34257 166.016 4.23651 166.331 4.23651C166.646 4.23651 166.914 4.34257 167.136 4.55469C167.362 4.76349 167.474 5.01373 167.474 5.3054C167.474 5.60038 167.362 5.85393 167.136 6.06605C166.914 6.27486 166.646 6.37926 166.331 6.37926ZM172.532 15.1491C171.76 15.1491 171.092 14.9851 170.528 14.657C169.968 14.3255 169.536 13.8648 169.231 13.2749C168.926 12.6816 168.773 11.9938 168.773 11.2116C168.773 10.4228 168.926 9.73343 169.231 9.14347C169.536 8.55019 169.968 8.08949 170.528 7.76136C171.092 7.42992 171.76 7.2642 172.532 7.2642C173.304 7.2642 173.97 7.42992 174.53 7.76136C175.094 8.08949 175.528 8.55019 175.833 9.14347C176.138 9.73343 176.29 10.4228 176.29 11.2116C176.29 11.9938 176.138 12.6816 175.833 13.2749C175.528 13.8648 175.094 14.3255 174.53 14.657C173.97 14.9851 173.304 15.1491 172.532 15.1491ZM172.542 13.5085C172.893 13.5085 173.186 13.4091 173.422 13.2102C173.657 13.008 173.834 12.733 173.954 12.3849C174.076 12.0369 174.138 11.6409 174.138 11.1967C174.138 10.7526 174.076 10.3565 173.954 10.0085C173.834 9.66051 173.657 9.38542 173.422 9.18324C173.186 8.98106 172.893 8.87997 172.542 8.87997C172.187 8.87997 171.889 8.98106 171.647 9.18324C171.408 9.38542 171.228 9.66051 171.105 10.0085C170.986 10.3565 170.926 10.7526 170.926 11.1967C170.926 11.6409 170.986 12.0369 171.105 12.3849C171.228 12.733 171.408 13.008 171.647 13.2102C171.889 13.4091 172.187 13.5085 172.542 13.5085Z" fill="white"/>
                <defs>
                <filter id="filter0_d_4_54" x="0" y="0" width="30" height="30" filterUnits="userSpaceOnUse" color-interpolation-filters="sRGB">
                <feFlood flood-opacity="0" result="BackgroundImageFix"/>
                <feColorMatrix in="SourceAlpha" type="matrix" values="0 0 0 0 0 0 0 0 0 0 0 0 0 0 0 0 0 0 127 0" result="hardAlpha"/>
                <feOffset dy="4"/>
                <feGaussianBlur stdDeviation="2"/>
                <feComposite in2="hardAlpha" operator="out"/>
                <feColorMatrix type="matrix" values="0 0 0 0 0 0 0 0 0 0 0 0 0 0 0 0 0 0 0.25 0"/>
                <feBlend mode="normal" in2="BackgroundImageFix" result="effect1_dropShadow_4_54"/>
                <feBlend mode="normal" in="SourceGraphic" in2="effect1_dropShadow_4_54" result="shape"/>
                </filter>
                <linearGradient id="paint0_linear_4_54" x1="12.3602" y1="317.497" x2="12.8047" y2="3.00082" gradientUnits="userSpaceOnUse">
                <stop stop-color="#3A173A"/>
                <stop offset="0.520833" stop-color="#C300F3" stop-opacity="0.61"/>
                <stop offset="1" stop-color="#AF9BFF"/>
                </linearGradient>
                </defs>
                </svg>